<svg xmlns="http://www.w3.org/2000/svg" viewBox="0 0 220 210" width="440" height="420" role="img" aria-label="Mimi, celebrating — Nice, you did it."><defs><radialGradient id="mg_R_2n9bn5rlb_-b" cx="40%" cy="28%" r="86%"><stop offset="0%" stop-color="#ECE6FC"></stop><stop offset="55%" stop-color="#C9BDF1"></stop><stop offset="100%" stop-color="#A78FDE"></stop></radialGradient><radialGradient id="mg_R_2n9bn5rlb_-glow" cx="50%" cy="50%" r="50%"><stop offset="0%" stop-color="#FFD79A" stop-opacity="0.85"></stop><stop offset="65%" stop-color="#FFD79A" stop-opacity="0.22"></stop><stop offset="100%" stop-color="#FFD79A" stop-opacity="0"></stop></radialGradient><clipPath id="mg_R_2n9bn5rlb_-clip"><path d="M108 56 C146 56 169 84 169 120 C169 155 143 173 108 173 C73 173 47 155 47 120 C47 84 70 56 108 56 Z"></path></clipPath></defs><ellipse cx="108" cy="186" rx="46" ry="7.5" fill="#3A3460" opacity="0.08"></ellipse><g class="mg-glow glow-bright" opacity="1"><ellipse cx="108" cy="132" rx="70" ry="60" fill="url(#mg_R_2n9bn5rlb_-glow)"></ellipse></g><g><g class="mg-body mg-hop"><ellipse cx="93" cy="171" rx="9" ry="6" fill="#A78FDE"></ellipse><ellipse cx="123" cy="171" rx="9" ry="6" fill="#A78FDE"></ellipse><path d="M108 56 C146 56 169 84 169 120 C169 155 143 173 108 173 C73 173 47 155 47 120 C47 84 70 56 108 56 Z" fill="url(#mg_R_2n9bn5rlb_-b)"></path><g clip-path="url(#mg_R_2n9bn5rlb_-clip)"><ellipse cx="84" cy="88" rx="22" ry="13" fill="#ffffff" opacity="0.24" transform="rotate(-18 84 88)"></ellipse></g><g><ellipse cx="78" cy="118" rx="6" ry="3.6" fill="#E7B8CE" opacity="0.5"></ellipse><ellipse cx="138" cy="118" rx="6" ry="3.6" fill="#E7B8CE" opacity="0.5"></ellipse><path d="M87.5 113 Q94 105.5 100.5 113" stroke="#3A3460" stroke-width="2.8" stroke-linecap="round" fill="none"></path><path d="M115.5 113 Q122 105.5 128.5 113" stroke="#3A3460" stroke-width="2.8" stroke-linecap="round" fill="none"></path><path d="M100 123 Q108 131 116 123" stroke="#3A3460" stroke-width="2.6" stroke-linecap="round" fill="none"></path></g></g></g><g class="mg-glow glow-bright" opacity="1"><circle cx="176" cy="64" r="22" fill="url(#mg_R_2n9bn5rlb_-glow)"></circle><circle cx="176" cy="64" r="6" fill="#FFF3D6"></circle><circle cx="176" cy="64" r="3.4" fill="#FFD79A"></circle></g><g fill="#FFD79A"><g class="mg-spark" transform="translate(58 60)"><path d="M0 -5 L1.3 -1.3 L5 0 L1.3 1.3 L0 5 L-1.3 1.3 L-5 0 L-1.3 -1.3 Z"></path></g><g class="mg-spark d1" transform="translate(160 58) scale(0.8)"><path d="M0 -5 L1.3 -1.3 L5 0 L1.3 1.3 L0 5 L-1.3 1.3 L-5 0 L-1.3 -1.3 Z" fill="#74BE78"></path></g></g></svg>