<svg viewBox="0 0 150 150" xmlns="http://www.w3.org/2000/svg">
<style>
.body{transform-box:fill-box;transform-origin:50% 100%;animation:lean 2.8s ease-in-out infinite}
@keyframes lean{0%,100%{transform:translateX(0)}50%{transform:translateX(-1.8px)}}
.orb{transform-box:fill-box;transform-origin:center;animation:glo 2.4s ease-in-out infinite}
@keyframes glo{0%,100%{opacity:.72;transform:scale(.92)}50%{opacity:1;transform:scale(1.12)}}
.ear{transform-box:fill-box;transform-origin:100% 50%}.ear1{animation:ear 1.7s ease-in-out infinite}.ear2{animation:ear 1.7s ease-in-out .35s infinite}@keyframes ear{0%,100%{opacity:.4;transform:scale(.82)}50%{opacity:1;transform:scale(1.1)}}
</style>
<rect width="150" height="150" rx="16" fill="#F5F2FC"/>
<g transform="translate(5,5)"><path opacity="0.07" d="M70 128.1C87.7836 128.1 102.2 125.906 102.2 123.2C102.2 120.494 87.7836 118.3 70 118.3C52.2165 118.3 37.8 120.494 37.8 123.2C37.8 125.906 52.2165 128.1 70 128.1Z" fill="#3A3460"/><g class="body" fill="none">

<g opacity="0.9">
<path d="M82.6 123.2C108.889 123.2 130.2 105.649 130.2 83.9999C130.2 62.3504 108.889 44.7999 82.6 44.7999C56.3112 44.7999 35 62.3504 35 83.9999C35 105.649 56.3112 123.2 82.6 123.2Z" fill="url(#paint0_radial_1298_81)"/>
</g>
<path d="M60.4288 124.107C63.8949 123.804 66.5409 121.685 66.3388 119.374C66.1366 117.063 63.1628 115.436 59.6967 115.739C56.2305 116.042 53.5845 118.161 53.7867 120.472C53.9889 122.783 56.9626 124.41 60.4288 124.107Z" fill="#A78FDE"/>
<path d="M82.7437 122.155C86.2099 121.851 88.8559 119.732 88.6537 117.421C88.4515 115.111 85.4778 113.483 82.0116 113.786C78.5455 114.09 75.8995 116.209 76.1016 118.52C76.3038 120.83 79.2776 122.458 82.7437 122.155Z" fill="#A78FDE"/>
<path d="M29.5209 102.593C32.9364 103.257 36.4227 100.104 37.3079 95.5499C38.1931 90.9959 36.142 86.766 32.7265 86.1021C29.311 85.4382 25.8246 88.5917 24.9394 93.1457C24.0542 97.6997 26.1054 101.93 29.5209 102.593Z" fill="#A78FDE"/>
<path d="M109.446 95.601C112.695 94.3541 113.98 89.8323 112.318 85.5012C110.655 81.1701 106.674 78.6699 103.426 79.9168C100.177 81.1637 98.8919 85.6856 100.554 90.0166C102.217 94.3477 106.198 96.8479 109.446 95.601Z" fill="#A78FDE"/>
<path d="M64.265 39.4505C88.6718 37.3151 105.721 55.4984 107.918 80.6025C109.87 102.917 94.1101 115.539 71.098 117.552C48.0859 119.565 30.3737 109.872 28.4214 87.5575C26.2251 62.4534 39.8582 41.5858 64.265 39.4505Z" fill="url(#paint1_radial_1298_81)"/>
<mask id="mask0_1298_81" style="mask-type:luminance" maskUnits="userSpaceOnUse" x="28" y="39" width="81" height="79">
<path d="M64.265 39.4505C88.6718 37.3151 105.721 55.4984 107.918 80.6025C109.87 102.917 94.1101 115.539 71.098 117.552C48.0859 119.565 30.3737 109.872 28.4214 87.5575C26.2251 62.4534 39.8582 41.5858 64.265 39.4505Z" fill="white"/>
</mask>
<g mask="url(#mask0_1298_81)">
<path opacity="0.24" d="M54.8552 70.7785C62.3284 67.6063 66.9172 61.5729 65.1045 57.3025C63.2918 53.0321 55.7641 52.1418 48.2909 55.314C40.8177 58.4862 36.229 64.5196 38.0417 68.79C39.8543 73.0604 47.382 73.9507 54.8552 70.7785Z" fill="white"/>
<path opacity="0.49" d="M96.7254 73.1494C108.279 72.1385 116.935 63.2017 116.059 53.1883C115.183 43.175 105.107 35.877 93.5529 36.8879C81.9991 37.8987 73.343 46.8356 74.219 56.8489C75.0951 66.8622 85.1715 74.1602 96.7254 73.1494Z" fill="url(#paint2_radial_1298_81)"/>
</g>
<path opacity="0.55" d="M50.834 86.7209C53.1447 86.5188 54.9197 85.2309 54.7984 83.8445C54.6771 82.458 52.7055 81.4979 50.3947 81.7001C48.0839 81.9023 46.309 83.1901 46.4303 84.5766C46.5516 85.963 48.5232 86.9231 50.834 86.7209Z" fill="#E7B8CE"/>
<path opacity="0.55" d="M85.7007 83.6706C88.0114 83.4685 89.7864 82.1806 89.6651 80.7942C89.5438 79.4077 87.5722 78.4476 85.2614 78.6498C82.9506 78.852 81.1757 80.1398 81.297 81.5263C81.4183 82.9127 83.3899 83.8728 85.7007 83.6706Z" fill="#E7B8CE"/>
<g opacity="0.72">
<path d="M50.9107 71.5364C53.5577 69.6652 56.3267 69.1888 59.2177 70.107" stroke="#3A3460" stroke-width="1.26" stroke-linecap="round"/>
<path d="M74.5592 68.7646C77.2468 67.3583 80.0565 67.3467 82.9882 68.7298" stroke="#3A3460" stroke-width="1.26" stroke-linecap="round"/>
</g>
<path d="M56.1441 83.1645C57.7617 83.023 58.9309 81.2848 58.7557 79.2821C58.5805 77.2795 57.1272 75.7707 55.5096 75.9122C53.8921 76.0537 52.7228 77.7919 52.8981 79.7946C53.0733 81.7973 54.5266 83.306 56.1441 83.1645Z" fill="#3A3460"/>
<path d="M54.82 79.2751C55.3207 79.2313 55.6911 78.79 55.6473 78.2893C55.6035 77.7886 55.1621 77.4183 54.6614 77.4621C54.1608 77.5059 53.7904 77.9472 53.8342 78.4479C53.878 78.9486 54.3194 79.3189 54.82 79.2751Z" fill="white"/>
<path d="M79.8536 81.0903C81.4711 80.9488 82.6404 79.2106 82.4652 77.2079C82.2899 75.2052 80.8366 73.6965 79.2191 73.838C77.6016 73.9795 76.4323 75.7177 76.6075 77.7204C76.7827 79.7231 78.236 81.2318 79.8536 81.0903Z" fill="#3A3460"/>
<path d="M78.5295 77.2008C79.0302 77.157 79.4005 76.7156 79.3567 76.215C79.3129 75.7143 78.8716 75.3439 78.3709 75.3877C77.8702 75.4315 77.4999 75.8729 77.5437 76.3736C77.5875 76.8742 78.0288 77.2446 78.5295 77.2008Z" fill="white"/>
<path d="M63.6543 88.691C67.1119 90.7308 70.3661 90.4461 73.417 87.8369" stroke="#3A3460" stroke-width="1.68" stroke-linecap="round"/>
<g opacity="0.9">
<g class="orb"><path d="M113.4 59.4999C120.745 59.4999 126.7 53.5453 126.7 46.1999C126.7 38.8545 120.745 32.8999 113.4 32.8999C106.055 32.8999 100.1 38.8545 100.1 46.1999C100.1 53.5453 106.055 59.4999 113.4 59.4999Z" fill="url(#paint3_radial_1298_81)"/>
<path d="M113.4 50.0501C115.526 50.0501 117.25 48.3264 117.25 46.2001C117.25 44.0738 115.526 42.3501 113.4 42.3501C111.274 42.3501 109.55 44.0738 109.55 46.2001C109.55 48.3264 111.274 50.0501 113.4 50.0501Z" fill="#FFF3D6"/>
<path d="M113.4 48.44C114.637 48.44 115.64 47.4371 115.64 46.2C115.64 44.9628 114.637 43.96 113.4 43.96C112.163 43.96 111.16 44.9628 111.16 46.2C111.16 47.4371 112.163 48.44 113.4 48.44Z" fill="#FFD79A"/></g>
</g>
<g class="ear ear1"><path d="M23.8 72.8002C20.0667 77.4668 20.0667 82.1335 23.8 86.8002" stroke="#A78FDE" stroke-width="1.54" stroke-linecap="round"/></g>
<g class="ear ear2"><path d="M18.2 68.6001C12.6 76.0668 12.6 83.5334 18.2 91.0001" stroke="#A78FDE" stroke-width="1.54" stroke-linecap="round"/></g>
<defs>
<radialGradient id="paint0_radial_1298_81" cx="0" cy="0" r="1" gradientUnits="userSpaceOnUse" gradientTransform="translate(82.6 83.9999) scale(47.6 39.2)">
<stop stop-color="#FFD79A" stop-opacity="0.85"/>
<stop offset="0.64" stop-color="#FFD79A" stop-opacity="0.22"/>
<stop offset="1" stop-color="#FFD79A" stop-opacity="0"/>
</radialGradient>
<radialGradient id="paint1_radial_1298_81" cx="0" cy="0" r="1" gradientUnits="userSpaceOnUse" gradientTransform="translate(58.2286 62.0144) rotate(-5) scale(68.628 67.424)">
<stop stop-color="#ECE6FC"/>
<stop offset="0.55" stop-color="#C9BDF1"/>
<stop offset="1" stop-color="#A78FDE"/>
</radialGradient>
<radialGradient id="paint2_radial_1298_81" cx="0" cy="0" r="1" gradientUnits="userSpaceOnUse" gradientTransform="translate(95.1391 55.0186) rotate(-5) scale(21 18.2)">
<stop stop-color="#FFD79A" stop-opacity="0.85"/>
<stop offset="0.64" stop-color="#FFD79A" stop-opacity="0.22"/>
<stop offset="1" stop-color="#FFD79A" stop-opacity="0"/>
</radialGradient>
<radialGradient id="paint3_radial_1298_81" cx="0" cy="0" r="1" gradientUnits="userSpaceOnUse" gradientTransform="translate(113.4 46.1999) scale(13.3)">
<stop stop-color="#FFD79A" stop-opacity="0.85"/>
<stop offset="0.64" stop-color="#FFD79A" stop-opacity="0.22"/>
<stop offset="1" stop-color="#FFD79A" stop-opacity="0"/>
</radialGradient>
</defs>
</g></g>
<g></g>
</svg>
